<?xml version="1.0" encoding="UTF-8"?>
<svg width="103px" height="103px" viewBox="0 0 103 103" version="1.1" xmlns="http://www.w3.org/2000/svg" xmlns:xlink="http://www.w3.org/1999/xlink">
    <!-- Generator: Sketch 48.2 (47327) - http://www.bohemiancoding.com/sketch -->
    <title>dianpuicon_fang</title>
    <desc>Created with Sketch.</desc>
    <defs></defs>
    <g id="07.12" stroke="none" stroke-width="1" fill="none" fill-rule="evenodd">
        <path d="M6,0 L97,0 C100.313708,-6.08718376e-16 103,2.6862915 103,6 L103,97 C103,100.313708 100.313708,103 97,103 L6,103 C2.6862915,103 4.05812251e-16,100.313708 0,97 L0,6 C-4.05812251e-16,2.6862915 2.6862915,6.08718376e-16 6,0 Z M76.6250176,59.8741133 C72.8114309,59.8741133 69.5407335,57.5411528 68.2047475,54.2472284 C66.8838808,57.5411528 63.6479931,59.8741133 59.8750527,59.8741133 C56.1020421,59.8741133 52.8655917,57.5411528 51.5447251,54.2472284 C50.209161,57.5411528 46.9383933,59.8741133 43.1251582,59.8741133 C39.3521476,59.8741133 36.1156972,57.5411528 34.7945493,54.2472284 C33.4593368,57.5411528 30.1884988,59.8741133 26.3752637,59.8741133 C25.4766834,59.8741133 24.6099591,59.7383295 23.7908432,59.492248 L23.7908432,78.1460914 C23.7908432,79.8803432 25.705161,82 27.4278502,82 L75.5722904,82 C77.294839,82 79.2091568,79.8803432 79.2091568,78.1460914 L79.2091568,59.4992567 C78.3893376,59.740241 77.523176,59.8741133 76.6248769,59.8741133 L76.6250176,59.8741133 Z M79.065699,30.3489317 L23.7429536,30.3489317 L18,45.4771405 C18,50.0060034 21.7329972,53.7636315 26.3273038,53.7636315 C30.9212588,53.7636315 34.7498945,50.1022838 34.7498945,45.4771405 C34.7498945,50.0060034 38.4828917,53.7636315 43.0771983,53.7636315 C47.6715049,53.7636315 51.499789,50.1022838 51.499789,45.4771405 C51.499789,50.0060034 55.2327862,53.7636315 59.8270928,53.7636315 C64.4214698,53.7636315 68.154045,50.1022838 68.154045,45.4771405 C68.154045,50.0060034 71.8870422,53.7636315 76.5770577,53.7636315 C81.171294,53.7636315 85,50.1022838 85,45.4771405 L79.065488,30.3489317 L79.065699,30.3489317 Z M27.571308,27.7815 L75.4284107,27.7815 C77.0558129,27.7815 78.3000985,26.5288629 78.3000985,24.8906084 C78.3000985,23.2526371 77.0558129,22 75.4284107,22 L27.571308,22 C25.9443277,22 24.7000422,23.2526371 24.7000422,24.8906084 C24.7000422,26.5288629 25.944398,27.7815 27.571308,27.7815 Z" id="Combined-Shape" fill="#DADADA"></path>
    </g>
</svg>